<svg width="864" height="720" viewBox="0 0 864 720" fill="none" xmlns="http://www.w3.org/2000/svg">
<path opacity="0.2" fill-rule="evenodd" clip-rule="evenodd" d="M1720.25 -280.432L1388.75 51.0684L1332.18 -5.5L1663.68 -337L1720.25 -280.432ZM789.694 -21.6311L458.195 309.869L401.626 253.301L733.125 -78.1995L789.694 -21.6311ZM1630.28 32.6303L1298.78 364.13L1242.21 307.561L1573.71 -23.9383L1630.28 32.6303ZM1318.62 121.195L987.12 452.695L930.551 396.126L1262.05 64.6264L1318.62 121.195ZM1013.85 202.522L682.347 534.022L625.778 477.454L957.277 145.954L1013.85 202.522ZM699.726 291.431L368.226 622.93L311.657 566.362L643.157 234.862L699.726 291.431ZM388.069 379.996L56.5685 711.495L0 654.927L331.5 323.427L388.069 379.996ZM923.878 515.584L592.378 847.082L535.81 790.513L867.309 459.015L923.878 515.584ZM612.221 604.149L280.721 935.647L224.153 879.078L555.652 547.58L612.221 604.149Z" fill="#211A1D"/>
</svg>
